<svg width="826" height="723" viewBox="0 0 826 723" fill="none" xmlns="http://www.w3.org/2000/svg">
				<g clip-path="url(#clip0_6_1380)">
				<path d="M734.577 50.5337C735.889 117.042 731.318 185.807 715.331 250.41C708.283 279.017 696.32 308.332 670.681 325.147C647.242 340.563 617.519 341.714 590.259 338.307C558.451 334.32 527.241 325.092 496.567 316.088C462.158 305.973 427.975 295.073 393.053 286.88C335.944 273.428 274.394 267.346 217.716 284.342C148.804 305.015 102.885 360.821 61.3231 415.617C58.0407 419.99 55.8852 426.654 57.4725 432.105C58.7506 436.548 62.6518 438.203 65.7719 434.131C104.682 384.243 145.644 331.775 208.104 310.399C266.222 290.493 329.806 296.703 388.888 310.639C424.193 318.974 458.836 329.993 493.709 340.101C525.563 349.353 558.155 358.94 591.247 362.133C618.347 364.741 646.426 362.379 669.865 347.934C697.205 331.132 712.824 301.01 722.086 271.464C733.292 235.528 738.471 197.371 742.546 160.042C746.778 120.597 748.415 80.8496 747.654 41.1651C747.606 36.9984 744.993 32.3515 740.492 34.9665C735.992 37.5815 734.519 45.779 734.577 50.5337V50.5337Z" fill="white"/>
				<path d="M78.4635 317.023C67.1486 344.165 55.8607 371.257 44.5967 398.427C39.3229 411.106 33.5612 423.715 28.823 436.618C24.612 448.059 21.7542 461.008 25.8039 472.966C26.283 474.389 27.2378 477.364 29.2946 477.569C45.4232 478.843 59.9053 472.951 74.6623 467.402C91.0855 461.201 107.631 455.259 124.224 449.473C157.878 437.765 191.918 427.042 226.221 417.173C233.7 415.002 236.653 392.271 228.27 394.535C194.814 403.568 161.718 413.636 128.931 424.713C112.758 430.208 96.6559 435.937 80.6254 441.898C66.1023 447.379 50.9133 454.7 34.9372 453.509L38.4279 458.112C35.4314 449.311 41.359 440.286 44.6551 432.362L59.2088 397.523C69.0938 373.878 78.955 350.156 88.84 326.511C90.5405 322.513 92.1824 313.76 88.012 310.536C83.6145 307.125 79.7484 314.159 78.4332 317.201L78.4635 317.023Z" fill="white"/>
				</g>
				<defs>
				<clipPath id="clip0_6_1380">
				<rect width="729.976" height="548.528" fill="white" transform="translate(829.591 80.5192) rotate(118.383)"/>
				</clipPath>
				</defs>
				</svg>