<svg width="413" height="242" viewBox="0 0 413 242" fill="none" xmlns="http://www.w3.org/2000/svg">
<path fill-rule="evenodd" clip-rule="evenodd" d="M187.945 154.901C272.261 176.614 344.125 180.575 348.458 163.747C352.792 146.92 287.953 115.677 203.638 93.9641C119.323 72.2511 47.4588 68.2904 43.1254 85.1176C38.792 101.945 103.63 133.188 187.945 154.901ZM189.949 147.122C252.782 163.303 306.335 166.262 309.562 153.731C312.789 141.2 264.468 117.924 201.635 101.743C138.801 85.5621 85.2482 82.6031 82.0212 95.1341C78.7942 107.665 127.115 130.941 189.949 147.122Z" fill="#ADBFFF"/>
<ellipse cx="197.295" cy="118.598" rx="71.9622" ry="74.9745" transform="rotate(14.4411 197.295 118.598)" fill="url(#paint0_linear_1042_704)"/>
<mask id="mask0_1042_704" style="mask-type:alpha" maskUnits="userSpaceOnUse" x="5" y="78" width="387" height="143">
<rect x="17.1953" y="78.4399" width="386.922" height="47.5285" transform="rotate(14.4411 17.1953 78.4399)" fill="#D9D9D9"/>
</mask>
<g mask="url(#mask0_1042_704)">
<path fill-rule="evenodd" clip-rule="evenodd" d="M187.945 154.901C272.261 176.614 344.125 180.575 348.458 163.747C352.792 146.92 287.953 115.677 203.638 93.9641C119.323 72.2511 47.4588 68.2904 43.1254 85.1176C38.792 101.945 103.63 133.188 187.945 154.901ZM189.949 147.122C252.782 163.303 306.335 166.262 309.562 153.731C312.789 141.2 264.468 117.924 201.635 101.743C138.801 85.5621 85.248 82.6031 82.021 95.1341C78.794 107.665 127.115 130.941 189.949 147.122Z" fill="#ADBFFF"/>
</g>
<circle cx="171.755" cy="79.5323" r="17.4048" transform="rotate(14.4411 171.755 79.5323)" fill="white" fill-opacity="0.2"/>
<circle cx="147.147" cy="103.956" r="6.35945" transform="rotate(14.4411 147.147 103.956)" fill="white" fill-opacity="0.2"/>
<defs>
<linearGradient id="paint0_linear_1042_704" x1="137.382" y1="60.0242" x2="197.295" y2="193.573" gradientUnits="userSpaceOnUse">
<stop stop-color="#809CFF"/>
<stop offset="1" stop-color="#4D5D99"/>
</linearGradient>
</defs>
</svg>
