<svg width="389" height="208" viewBox="0 0 389 208" fill="none" xmlns="http://www.w3.org/2000/svg">
<g opacity="0.8">
<circle cx="221.624" cy="192.865" r="8.76077" transform="rotate(-180 221.624 192.865)" fill="white" fill-opacity="0.8"/>
<ellipse cx="152.004" cy="54.267" rx="2.82799" ry="2.82799" transform="rotate(-180 152.004 54.267)" fill="white" fill-opacity="0.8"/>
<ellipse cx="211.746" cy="25.6336" rx="1.76749" ry="1.76749" transform="rotate(-180 211.746 25.6336)" fill="white" fill-opacity="0.8"/>
<ellipse cx="317.035" cy="66.0349" rx="0.5" ry="0.5" transform="rotate(-180 317.035 66.0349)" fill="white" fill-opacity="0.8"/>
<ellipse cx="65.5" cy="12.5" rx="0.5" ry="0.5" transform="rotate(-180 65.5 12.5)" fill="white" fill-opacity="0.8"/>
<ellipse cx="51" cy="178" rx="1" ry="1" transform="rotate(-180 51 178)" fill="white" fill-opacity="0.8"/>
<ellipse cx="311" cy="121" rx="1" ry="1" transform="rotate(-180 311 121)" fill="white" fill-opacity="0.8"/>
<ellipse cx="368" cy="18" rx="1" ry="1" transform="rotate(-180 368 18)" fill="white" fill-opacity="0.8"/>
<ellipse cx="14.5" cy="67.5" rx="0.5" ry="0.5" transform="rotate(-180 14.5 67.5)" fill="white" fill-opacity="0.8"/>
<ellipse cx="139.985" cy="-0.17198" rx="2.82799" ry="2.82799" transform="rotate(-180 139.985 -0.17198)" fill="white" fill-opacity="0.8"/>
<circle cx="144.16" cy="129.235" r="5.07202" transform="rotate(-180 144.16 129.235)" fill="white" fill-opacity="0.8"/>
<circle cx="383.928" cy="87.7363" r="5.07202" transform="rotate(-180 383.928 87.7363)" fill="white" fill-opacity="0.8"/>
<circle cx="288.022" cy="6.58398" r="5.07202" transform="rotate(-180 288.022 6.58398)" fill="white" fill-opacity="0.8"/>
<path d="M0.000208086 144.056C0.000208189 142.884 0.949808 141.935 2.1212 141.935C3.29259 141.935 4.24219 142.884 4.24219 144.056C4.24219 145.227 3.29259 146.177 2.1212 146.177C0.949807 146.177 0.000207984 145.227 0.000208086 144.056Z" fill="white" fill-opacity="0.8"/>
<path d="M256.5 93.8118C246.506 98.2126 242.944 104.417 240.096 115.921C239.837 116.967 238.27 116.967 238.011 115.921C235.192 104.537 231.676 98.3431 221.918 93.9506C221.041 93.5559 221.091 92.2037 221.994 91.8716C231.118 88.5136 235.398 82.9635 237.767 72.5327C238.025 71.3944 240.092 71.3936 240.357 72.5304C242.762 82.8465 247.129 87.8434 256.494 91.8209C257.345 92.1821 257.346 93.4395 256.5 93.8118Z" fill="#FFD997"/>
<path d="M75.8435 85.1035C70.4123 87.7405 68.1236 91.3761 66.4079 97.5863C66.1207 98.6261 64.5135 98.6261 64.2262 97.5863C62.5428 91.4925 60.3075 87.8777 55.0928 85.2529C54.235 84.8211 54.2853 83.4415 55.1702 83.0684C59.7171 81.1514 62.252 78.2242 63.7991 73.3447C64.1521 72.2314 66.5011 72.2277 66.8688 73.3363C68.4607 78.136 71.0871 80.8571 75.833 83.0425C76.6712 83.4284 76.6737 84.7005 75.8435 85.1035Z" fill="#FFD997"/>
<path d="M354.232 179.657C350.674 181.506 348.965 183.998 347.715 187.966C347.393 188.991 345.764 188.991 345.442 187.966C344.228 184.112 342.581 181.651 339.227 179.818C338.379 179.354 338.43 177.931 339.306 177.522C341.975 176.276 343.682 174.512 344.83 171.87C345.294 170.802 347.893 170.796 348.38 171.854C349.58 174.454 351.38 176.139 354.218 177.519C355.054 177.926 355.057 179.228 354.232 179.657Z" fill="white" fill-opacity="0.8"/>
</g>
</svg>
