<svg width="14" height="15" viewBox="0 0 14 15" fill="none" xmlns="http://www.w3.org/2000/svg">
<path d="M10.5869 6.34292L6.63692 2.39292C6.45926 2.20347 6.36228 1.95233 6.3665 1.69265C6.37072 1.43297 6.4758 1.18511 6.65951 1.00153C6.84323 0.817946 7.09116 0.713038 7.35084 0.709005C7.61053 0.704972 7.86159 0.802129 8.05092 0.979918L13.7079 6.63592C13.8011 6.72857 13.8751 6.83873 13.9255 6.96007C13.976 7.0814 14.002 7.21151 14.002 7.34292C14.002 7.47433 13.976 7.60444 13.9255 7.72577C13.8751 7.84711 13.8011 7.95727 13.7079 8.04992L8.05092 13.7069C7.95867 13.8024 7.84833 13.8786 7.72632 13.931C7.60432 13.9834 7.4731 14.011 7.34032 14.0122C7.20754 14.0133 7.07586 13.988 6.95296 13.9377C6.83007 13.8875 6.71842 13.8132 6.62452 13.7193C6.53063 13.6254 6.45638 13.5138 6.4061 13.3909C6.35582 13.268 6.33051 13.1363 6.33167 13.0035C6.33282 12.8707 6.36041 12.7395 6.41282 12.6175C6.46523 12.4955 6.54141 12.3852 6.63692 12.2929L10.5869 8.34292L1.00092 8.34292C0.735702 8.34292 0.481349 8.23756 0.293812 8.05002C0.106276 7.86249 0.000918948 7.60813 0.000918971 7.34292C0.000918995 7.0777 0.106276 6.82335 0.293812 6.63581C0.481349 6.44827 0.735702 6.34292 1.00092 6.34292L10.5869 6.34292Z" fill="white"/>
</svg>
