<svg width="79" height="78" viewBox="0 0 79 78" fill="none" xmlns="http://www.w3.org/2000/svg">
<rect x="0.5" width="78" height="78" rx="39" fill="#BFE7CA"/>
<path d="M32.8333 44.3333C33.5697 44.3333 34.1667 43.7364 34.1667 43C34.1667 42.2636 33.5697 41.6667 32.8333 41.6667C32.097 41.6667 31.5 42.2636 31.5 43C31.5 43.7364 32.097 44.3333 32.8333 44.3333ZM34.1667 47C34.1667 47.7364 33.5697 48.3333 32.8333 48.3333C32.097 48.3333 31.5 47.7364 31.5 47C31.5 46.2636 32.097 45.6667 32.8333 45.6667C33.5697 45.6667 34.1667 46.2636 34.1667 47ZM32.8333 40.3333C33.5697 40.3333 34.1667 39.7364 34.1667 39C34.1667 38.2636 33.5697 37.6667 32.8333 37.6667C32.097 37.6667 31.5 38.2636 31.5 39C31.5 39.7364 32.097 40.3333 32.8333 40.3333ZM34.1667 35C34.1667 35.7364 33.5697 36.3333 32.8333 36.3333C32.097 36.3333 31.5 35.7364 31.5 35C31.5 34.2636 32.097 33.6667 32.8333 33.6667C33.5697 33.6667 34.1667 34.2636 34.1667 35ZM32.8333 32.3333C33.5697 32.3333 34.1667 31.7364 34.1667 31C34.1667 30.2636 33.5697 29.6667 32.8333 29.6667C32.097 29.6667 31.5 30.2636 31.5 31C31.5 31.7364 32.097 32.3333 32.8333 32.3333ZM42.1667 28.6667V29.6667H48.5C50.1569 29.6667 51.5 31.0098 51.5 32.6667V50.6667C51.5 51.2189 51.0523 51.6667 50.5 51.6667H46.5V48C46.5 47.6318 46.2015 47.3333 45.8333 47.3333H42.5C42.1318 47.3333 41.8333 47.6318 41.8333 48V51.6667H28.5C27.9477 51.6667 27.5 51.2189 27.5 50.6667V28.6667C27.5 27.0098 28.8431 25.6667 30.5 25.6667H39.1667C40.8235 25.6667 42.1667 27.0098 42.1667 28.6667ZM30.5 27.6667C29.9477 27.6667 29.5 28.1144 29.5 28.6667V49.6667H36.8333V32.6667C36.8333 31.0098 38.1765 29.6667 39.8333 29.6667H40.1667V28.6667C40.1667 28.1144 39.719 27.6667 39.1667 27.6667H30.5ZM47.5 43C47.5 42.2636 46.903 41.6667 46.1667 41.6667C45.4303 41.6667 44.8333 42.2636 44.8333 43C44.8333 43.7364 45.4303 44.3333 46.1667 44.3333C46.903 44.3333 47.5 43.7364 47.5 43ZM42.1667 44.3333C42.903 44.3333 43.5 43.7364 43.5 43C43.5 42.2636 42.903 41.6667 42.1667 41.6667C41.4303 41.6667 40.8333 42.2636 40.8333 43C40.8333 43.7364 41.4303 44.3333 42.1667 44.3333ZM47.5 39C47.5 38.2636 46.903 37.6667 46.1667 37.6667C45.4303 37.6667 44.8333 38.2636 44.8333 39C44.8333 39.7364 45.4303 40.3333 46.1667 40.3333C46.903 40.3333 47.5 39.7364 47.5 39ZM42.1667 40.3333C42.903 40.3333 43.5 39.7364 43.5 39C43.5 38.2636 42.903 37.6667 42.1667 37.6667C41.4303 37.6667 40.8333 38.2636 40.8333 39C40.8333 39.7364 41.4303 40.3333 42.1667 40.3333ZM47.5 35C47.5 34.2636 46.903 33.6667 46.1667 33.6667C45.4303 33.6667 44.8333 34.2636 44.8333 35C44.8333 35.7364 45.4303 36.3333 46.1667 36.3333C46.903 36.3333 47.5 35.7364 47.5 35ZM42.1667 36.3333C42.903 36.3333 43.5 35.7364 43.5 35C43.5 34.2636 42.903 33.6667 42.1667 33.6667C41.4303 33.6667 40.8333 34.2636 40.8333 35C40.8333 35.7364 41.4303 36.3333 42.1667 36.3333Z" fill="#1D4619"/>
</svg>
