<svg width="78" height="78" viewBox="0 0 78 78" fill="none" xmlns="http://www.w3.org/2000/svg">
<rect width="78" height="78" rx="39" fill="#D8C0DE"/>
<g clip-path="url(#clip0_429_338)">
<path fill-rule="evenodd" clip-rule="evenodd" d="M56.4476 23.2861L55.3905 26.2419L54.079 29.4146C52.8625 32.1348 51.1908 35.3149 49.1913 37.5098C47.2832 39.6037 44.4022 41.535 42.0963 42.9054C42.4 44.4249 42.3362 45.9994 41.9108 47.4868C41.4854 48.9742 40.7118 50.3276 39.6597 51.425C35.5926 55.6689 31.0471 55.6689 27.6662 54.6219C25.8178 54.0542 24.0805 53.149 22.5349 51.9485L20.9851 50.6061C20.9023 50.5335 20.8367 50.442 20.7931 50.3387C20.7496 50.2354 20.7294 50.1231 20.7341 50.0104C20.7387 49.8976 20.7682 49.7875 20.8201 49.6886C20.872 49.5896 20.945 49.5044 21.0335 49.4395L21.6283 48.9964C22.9327 48.0055 24.2782 46.7866 24.5989 45.1077C24.8044 43.3777 24.922 42.4349 24.9519 42.2791C25.1991 40.9909 25.7223 39.5289 26.989 38.2034C28.0406 37.1056 29.3377 36.2983 30.7631 35.8544C32.1885 35.4105 33.6974 35.3439 35.1536 35.6608C36.4669 33.2547 38.3159 30.2484 40.3244 28.2573C42.4278 26.1709 45.4754 24.4247 48.0823 23.1571L51.121 21.7868L53.9554 20.6856C54.3025 20.5612 54.6761 20.541 55.0337 20.6273C55.3913 20.7136 55.7184 20.903 55.9779 21.1738C56.2375 21.4446 56.4189 21.786 56.5016 22.1591C56.5843 22.5322 56.565 22.9221 56.4458 23.2843L56.4476 23.2861ZM29.5242 40.8488C28.8917 41.5069 28.6176 42.2211 28.4653 43.0119C28.2611 44.7431 28.1434 45.6867 28.1124 45.8425C27.7899 47.5325 26.8421 48.9272 26.052 49.8583C26.8864 50.3505 27.7703 50.7455 28.6875 51.0361C31.1672 51.8064 34.2237 51.8064 37.1262 48.7795C37.632 48.2602 38.0342 47.6416 38.3096 46.9592C38.5851 46.2769 38.7283 45.5444 38.7311 44.8041C38.7339 44.0637 38.5962 43.3301 38.326 42.6455C38.0557 41.9609 37.6582 41.339 37.1564 40.8155C36.6546 40.292 36.0585 39.8774 35.4024 39.5955C34.7463 39.3137 34.0432 39.1701 33.3337 39.1732C32.6241 39.1763 31.9222 39.326 31.2684 39.6136C30.6145 39.9012 30.0218 40.321 29.5242 40.8488ZM38.4646 37.1565C39.3201 37.7821 40.0641 38.5591 40.663 39.4523C41.3635 39.0279 42.0874 38.568 42.7951 38.0838L42.7413 37.9585C42.4468 37.3117 42.0467 36.7234 41.5588 36.2198C41.1277 35.7697 40.6343 35.3897 40.095 35.0925L39.7725 34.9317C39.3103 35.6701 38.8695 36.4236 38.4646 37.1565ZM51.7982 25.5371C51.1102 25.8344 50.3649 26.1728 49.5945 26.5467C47.0718 27.775 44.4595 29.3136 42.7933 30.9663C42.5114 31.2468 42.2307 31.554 41.9512 31.888C42.5998 32.2619 43.3523 32.8041 44.0922 33.5781C44.834 34.3502 45.3518 35.1355 45.7119 35.8122C46.032 35.5206 46.3265 35.2277 46.5952 34.9335C48.179 33.1948 49.6536 30.469 50.8307 27.8348C51.189 27.0309 51.5115 26.2531 51.7982 25.5371Z" fill="#C06ED6"/>
</g>
<defs>
<clipPath id="clip0_429_338">
<rect width="43" height="44.8696" fill="white" transform="translate(17 16.0435)"/>
</clipPath>
</defs>
</svg>
