<svg width="" height="" viewBox="0 0 40 39" fill="none" xmlns="http://www.w3.org/2000/svg">
<rect x="0.25" width="39" height="39" rx="19.5" fill="#D8C0DE"/>
<g clip-path="url(#clip0_516_356)">
<g clip-path="url(#clip1_516_356)">
<path fill-rule="evenodd" clip-rule="evenodd" d="M28.4743 11.6431L27.9457 13.121L27.29 14.7073C26.6817 16.0674 25.8459 17.6575 24.8462 18.7549C23.8921 19.8019 22.4516 20.7675 21.2987 21.4527C21.4505 22.2125 21.4186 22.9997 21.2059 23.7434C20.9932 24.4871 20.6064 25.1638 20.0803 25.7125C18.0468 27.8344 15.774 27.8344 14.0836 27.311C13.1594 27.0271 12.2908 26.5745 11.5179 25.9742L10.743 25.3031C10.7017 25.2668 10.6688 25.221 10.647 25.1694C10.6253 25.1177 10.6152 25.0616 10.6175 25.0052C10.6199 24.9488 10.6346 24.8938 10.6605 24.8443C10.6865 24.7948 10.723 24.7522 10.7672 24.7197L11.0647 24.4982C11.7168 24.0028 12.3896 23.3933 12.5499 22.5539C12.6527 21.6889 12.7115 21.2174 12.7264 21.1395C12.85 20.4955 13.1116 19.7645 13.745 19.1017C14.2708 18.5528 14.9193 18.1491 15.632 17.9272C16.3447 17.7052 17.0992 17.672 17.8273 17.8304C18.4839 16.6273 19.4084 15.1242 20.4127 14.1287C21.4644 13.0854 22.9882 12.2124 24.2916 11.5786L25.811 10.8934L27.2282 10.3428C27.4017 10.2806 27.5885 10.2705 27.7673 10.3137C27.9461 10.3568 28.1097 10.4515 28.2395 10.5869C28.3692 10.7223 28.4599 10.893 28.5013 11.0795C28.5427 11.2661 28.533 11.461 28.4734 11.6421L28.4743 11.6431ZM15.0126 20.4244C14.6964 20.7535 14.5593 21.1106 14.4832 21.506C14.381 22.3716 14.3222 22.8433 14.3067 22.9212C14.1454 23.7663 13.6715 24.4636 13.2765 24.9291C13.6937 25.1752 14.1356 25.3727 14.5942 25.5181C15.8341 25.9032 17.3624 25.9032 18.8136 24.3898C19.0665 24.1301 19.2676 23.8208 19.4053 23.4796C19.543 23.1385 19.6146 22.7722 19.6161 22.402C19.6175 22.0318 19.5486 21.665 19.4135 21.3227C19.2783 20.9805 19.0796 20.6695 18.8287 20.4077C18.5778 20.146 18.2797 19.9387 17.9517 19.7978C17.6236 19.6568 17.2721 19.5851 16.9173 19.5866C16.5625 19.5882 16.2116 19.663 15.8847 19.8068C15.5578 19.9506 15.2614 20.1605 15.0126 20.4244ZM19.4828 18.5782C19.9105 18.8911 20.2825 19.2796 20.582 19.7261C20.9323 19.5139 21.2942 19.284 21.648 19.0419L21.6212 18.9792C21.4739 18.6559 21.2738 18.3617 21.0299 18.1099C20.8144 17.8848 20.5676 17.6948 20.298 17.5462L20.1368 17.4658C19.9056 17.8351 19.6853 18.2118 19.4828 18.5782ZM26.1496 12.7686C25.8056 12.9172 25.4329 13.0864 25.0477 13.2733C23.7864 13.8875 22.4803 14.6568 21.6471 15.4832C21.5062 15.6234 21.3658 15.777 21.2261 15.944C21.5504 16.131 21.9266 16.4021 22.2966 16.7891C22.6675 17.1751 22.9264 17.5677 23.1064 17.9061C23.2665 17.7603 23.4137 17.6138 23.5481 17.4668C24.34 16.5974 25.0773 15.2345 25.6658 13.9174C25.845 13.5154 26.0063 13.1266 26.1496 12.7686Z" fill="#C06ED6"/>
</g>
</g>
<defs>
<clipPath id="clip0_516_356">
<rect width="23" height="24" fill="white" transform="translate(8.25 7.5)"/>
</clipPath>
<clipPath id="clip1_516_356">
<rect width="21.5" height="22.4348" fill="white" transform="translate(8.75 8.02173)"/>
</clipPath>
</defs>
</svg>
