<svg width="78" height="78" viewBox="0 0 78 78" fill="none" xmlns="http://www.w3.org/2000/svg">
<rect width="78" height="78" rx="39" fill="#C9D1FD"/>
<path d="M28.8799 33.4692L22.2422 39L28.8799 44.5308C29.1 44.7112 29.2823 44.9334 29.4161 45.1845C29.5499 45.4357 29.6327 45.7109 29.6597 45.9942C29.6866 46.2776 29.6573 46.5634 29.5732 46.8354C29.4891 47.1073 29.3521 47.3599 29.1699 47.5786C28.9877 47.7972 28.7641 47.9777 28.5119 48.1095C28.2596 48.2413 27.9838 48.3219 27.7002 48.3466C27.4167 48.3713 27.1311 48.3396 26.8598 48.2534C26.5886 48.1672 26.3371 48.0281 26.1199 47.8442L17.4949 40.6567C17.252 40.4543 17.0565 40.201 16.9224 39.9147C16.7883 39.6284 16.7188 39.3161 16.7188 39C16.7188 38.6838 16.7883 38.3715 16.9224 38.0852C17.0565 37.7989 17.252 37.5456 17.4949 37.3433L26.1199 30.1558C26.5599 29.7952 27.1246 29.6231 27.6909 29.677C28.2572 29.7308 28.7793 30.0064 29.1434 30.4435C29.5075 30.8806 29.6841 31.4439 29.6348 32.0106C29.5854 32.5773 29.3141 33.1016 28.8799 33.4692ZM60.5049 37.3433L51.8799 30.1558C51.6627 29.9719 51.4112 29.8328 51.14 29.7465C50.8687 29.6603 50.5831 29.6286 50.2996 29.6533C50.016 29.678 49.7402 29.7586 49.4879 29.8904C49.2357 30.0223 49.012 30.2027 48.8299 30.4214C48.6477 30.6401 48.5107 30.8927 48.4266 31.1646C48.3425 31.4365 48.3131 31.7224 48.3401 32.0057C48.3671 32.289 48.4498 32.5642 48.5837 32.8154C48.7175 33.0666 48.8998 33.2888 49.1199 33.4692L55.7575 39L49.1199 44.5308C48.8998 44.7112 48.7175 44.9334 48.5837 45.1845C48.4498 45.4357 48.3671 45.7109 48.3401 45.9942C48.3131 46.2776 48.3425 46.5634 48.4266 46.8354C48.5107 47.1073 48.6477 47.3599 48.8299 47.5786C49.012 47.7972 49.2357 47.9777 49.4879 48.1095C49.7402 48.2413 50.016 48.3219 50.2996 48.3466C50.5831 48.3713 50.8687 48.3396 51.14 48.2534C51.4112 48.1672 51.6627 48.0281 51.8799 47.8442L60.5049 40.6567C60.7478 40.4543 60.9433 40.201 61.0774 39.9147C61.2115 39.6284 61.281 39.3161 61.281 39C61.281 38.6838 61.2115 38.3715 61.0774 38.0852C60.9433 37.7989 60.7478 37.5456 60.5049 37.3433ZM45.4866 21.1606C45.2204 21.0638 44.9378 21.0204 44.6549 21.0328C44.3719 21.0453 44.0942 21.1134 43.8375 21.2332C43.5809 21.353 43.3504 21.5222 43.1592 21.7311C42.9679 21.94 42.8197 22.1846 42.723 22.4508L31.223 54.0758C31.0281 54.6131 31.0545 55.2058 31.2964 55.7237C31.5383 56.2416 31.976 56.6422 32.5132 56.8376C32.749 56.9246 32.9985 56.969 33.2499 56.9687C33.6926 56.9688 34.1246 56.8326 34.4872 56.5787C34.8498 56.3247 35.1255 55.9653 35.2768 55.5492L46.7768 23.9242C46.8736 23.658 46.917 23.3754 46.9045 23.0924C46.8921 22.8095 46.824 22.5318 46.7042 22.2751C46.5844 22.0185 46.4152 21.788 46.2063 21.5967C45.9974 21.4055 45.7528 21.2573 45.4866 21.1606Z" fill="#4C64E0"/>
</svg>
