<svg width="" height="" viewBox="0 0 40 40" fill="none" xmlns="http://www.w3.org/2000/svg">
<rect x="0.25" y="0.5" width="39" height="39" rx="19.5" fill="#C9D1FD"/>
<g clip-path="url(#clip0_516_347)">
<path d="M14.6899 17.2346L11.3711 20L14.6899 22.7654C14.8 22.8556 14.8911 22.9667 14.9581 23.0923C15.025 23.2179 15.0664 23.3555 15.0798 23.4971C15.0933 23.6388 15.0786 23.7817 15.0366 23.9177C14.9946 24.0536 14.926 24.1799 14.835 24.2893C14.7439 24.3986 14.632 24.4888 14.5059 24.5548C14.3798 24.6207 14.2419 24.661 14.1001 24.6733C13.9583 24.6857 13.8155 24.6698 13.6799 24.6267C13.5443 24.5836 13.4186 24.514 13.3099 24.4221L8.99745 20.8283C8.87599 20.7272 8.77826 20.6005 8.7112 20.4574C8.64414 20.3142 8.60938 20.1581 8.60938 20C8.60938 19.8419 8.64414 19.6858 8.7112 19.5426C8.77826 19.3995 8.87599 19.2728 8.99745 19.1716L13.3099 15.5779C13.5299 15.3976 13.8123 15.3115 14.0955 15.3385C14.3786 15.3654 14.6397 15.5032 14.8217 15.7217C15.0038 15.9403 15.0921 16.2219 15.0674 16.5053C15.0427 16.7887 14.907 17.0508 14.6899 17.2346ZM30.5024 19.1716L26.1899 15.5779C26.0813 15.4859 25.9556 15.4164 25.82 15.3733C25.6844 15.3302 25.5415 15.3143 25.3998 15.3267C25.258 15.339 25.1201 15.3793 24.994 15.4452C24.8678 15.5111 24.756 15.6014 24.6649 15.7107C24.5739 15.82 24.5053 15.9463 24.4633 16.0823C24.4213 16.2183 24.4066 16.3612 24.42 16.5029C24.4335 16.6445 24.4749 16.7821 24.5418 16.9077C24.6088 17.0333 24.6999 17.1444 24.8099 17.2346L28.1288 20L24.8099 22.7654C24.6999 22.8556 24.6088 22.9667 24.5418 23.0923C24.4749 23.2179 24.4335 23.3555 24.42 23.4971C24.4066 23.6388 24.4213 23.7817 24.4633 23.9177C24.5053 24.0536 24.5739 24.1799 24.6649 24.2893C24.756 24.3986 24.8678 24.4888 24.994 24.5548C25.1201 24.6207 25.258 24.661 25.3998 24.6733C25.5415 24.6857 25.6844 24.6698 25.82 24.6267C25.9556 24.5836 26.0813 24.514 26.1899 24.4221L30.5024 20.8283C30.6239 20.7272 30.7216 20.6005 30.7887 20.4574C30.8558 20.3142 30.8905 20.1581 30.8905 20C30.8905 19.8419 30.8558 19.6858 30.7887 19.5426C30.7216 19.3995 30.6239 19.2728 30.5024 19.1716ZM22.9933 11.0803C22.8602 11.0319 22.7189 11.0102 22.5774 11.0164C22.436 11.0227 22.2971 11.0567 22.1688 11.1166C22.0405 11.1765 21.9252 11.2611 21.8296 11.3655C21.734 11.47 21.6599 11.5923 21.6115 11.7254L15.8615 27.5379C15.764 27.8065 15.7772 28.1029 15.8982 28.3619C16.0192 28.6208 16.238 28.8211 16.5066 28.9188C16.6245 28.9623 16.7492 28.9845 16.8749 28.9844C17.0963 28.9844 17.3123 28.9163 17.4936 28.7893C17.6749 28.6623 17.8128 28.4826 17.8884 28.2746L23.6384 12.4621C23.6868 12.329 23.7085 12.1877 23.7023 12.0462C23.696 11.9047 23.662 11.7659 23.6021 11.6376C23.5422 11.5092 23.4576 11.394 23.3531 11.2984C23.2487 11.2028 23.1264 11.1287 22.9933 11.0803Z" fill="#4C64E0"/>
</g>
<defs>
<clipPath id="clip0_516_347">
<rect width="23" height="23" fill="white" transform="translate(8.25 8.5)"/>
</clipPath>
</defs>
</svg>


