<svg width="" height="" viewBox="0 0 79 78" fill="none" xmlns="http://www.w3.org/2000/svg">
<rect x="0.5" width="78" height="78" rx="39" fill="#EDD5B2"/>
<path d="M26 30.25C26 28.4551 27.4551 27 29.25 27H50.75C52.5449 27 54 28.4551 54 30.25V47.75C54 49.5449 52.5449 51 50.75 51H29.25C27.4551 51 26 49.5449 26 47.75V30.25ZM29.25 29C28.5596 29 28 29.5596 28 30.25V47.75C28 48.4404 28.5596 49 29.25 49H32V45.5C32 44.1193 33.1193 43 34.5 43H45.5C46.8807 43 48 44.1193 48 45.5V49H50.75C51.4404 49 52 48.4404 52 47.75V30.25C52 29.5596 51.4404 29 50.75 29H29.25ZM40 41C42.7614 41 45 38.7614 45 36C45 33.2386 42.7614 31 40 31C37.2386 31 35 33.2386 35 36C35 38.7614 37.2386 41 40 41Z" fill="#BE7509"/>
</svg>
