<svg height="222px" width="222px" version="1.1" id="Layer_1" xmlns="http://www.w3.org/2000/svg" xmlns:xlink="http://www.w3.org/1999/xlink" viewBox="-51.2 -51.2 614.40 614.40" xml:space="preserve" fill="#271357"><g id="SVGRepo_bgCarrier" stroke-width="0"></g><g id="SVGRepo_tracerCarrier" stroke-linecap="round" stroke-linejoin="round"></g><g id="SVGRepo_iconCarrier"> <path style="fill:#4D52CB;" d="M256.398,10.894c-120.052-0.215-218.27,99.687-218.27,219.737v171.751 c0,17.808,13.962,32.86,31.762,33.347c18.468,0.507,33.599-14.314,33.599-32.668v-18.727c0.069,0.068,0.137,0.135,0.206,0.202 c13.682,13.381,21.581,31.584,21.581,50.723v32.485c0,17.808,13.962,32.86,31.762,33.347c18.468,0.507,33.599-14.314,33.599-32.668 v-31.769c20.635,6.482,42.588,9.982,65.361,9.982s44.727-3.5,65.361-9.982v31.089c0,17.808,13.961,32.86,31.762,33.347 c18.468,0.507,33.599-14.314,33.599-32.668v-33.164c0-19.138,7.899-37.341,21.582-50.723l0.205-0.202v18.047 c0,17.808,13.961,32.86,31.762,33.347c18.468,0.507,33.599-14.314,33.599-32.668V305.02v-65.361v-10.894 C473.871,108.571,376.542,11.109,256.398,10.894z"></path> <g> <circle style="fill:#E8E3DF;" cx="168.85" cy="217.871" r="43.574"></circle> <circle style="fill:#E8E3DF;" cx="343.147" cy="217.871" r="43.574"></circle> </g> <path style="fill:#E8E3DF;" d="M275.88,326.807h-39.762c-13.085,0-23.694-10.608-23.694-23.694v-6.264 c0-7.521,6.096-13.617,13.617-13.617h59.915c7.521,0,13.617,6.096,13.617,13.617v6.264 C299.574,316.199,288.966,326.807,275.88,326.807z"></path> <path d="M479.917,263.287c-0.588-0.392-1.22-0.73-1.885-1.002c-0.654-0.272-1.339-0.479-2.036-0.621 c-1.405-0.283-2.843-0.283-4.249,0c-0.697,0.142-1.383,0.349-2.048,0.621c-0.655,0.272-1.285,0.61-1.874,1.002 c-0.6,0.392-1.156,0.85-1.657,1.351c-0.501,0.501-0.959,1.057-1.351,1.656c-0.403,0.588-0.73,1.22-1.002,1.885 c-0.272,0.654-0.49,1.34-0.62,2.037c-0.143,0.697-0.218,1.416-0.218,2.124c0,0.708,0.075,1.427,0.218,2.124 c0.13,0.697,0.348,1.383,0.62,2.037c0.272,0.665,0.599,1.296,1.002,1.885c0.392,0.599,0.85,1.155,1.351,1.656 s1.057,0.959,1.657,1.351c0.588,0.392,1.219,0.73,1.874,1.002c0.664,0.272,1.351,0.479,2.048,0.621 c0.697,0.142,1.416,0.218,2.124,0.218c0.707,0,1.427-0.076,2.124-0.218c0.697-0.142,1.383-0.349,2.036-0.621 c0.665-0.272,1.296-0.61,1.885-1.002c0.599-0.392,1.155-0.85,1.656-1.351c2.026-2.026,3.193-4.837,3.193-7.702 c0-2.865-1.166-5.676-3.193-7.702C481.071,264.136,480.515,263.679,479.917,263.287z"></path> <path d="M417.898,67.14C374.783,23.954,317.435,0.11,256.418,0c-0.139,0-0.27,0-0.411,0C195.782,0,138.777,23.797,95.47,67.028 c-44.002,43.923-68.235,102.025-68.235,163.604v171.751c0,23.752,19.002,43.597,42.357,44.237 c11.877,0.332,23.098-4.051,31.602-12.324c4.807-4.678,8.395-10.256,10.604-16.364c1.703,5.561,2.585,11.385,2.585,17.328v32.485 c0,23.752,19.002,43.597,42.357,44.237c11.904,0.344,23.098-4.051,31.602-12.324c8.506-8.276,13.189-19.368,13.189-31.233v-17.426 c17.757,4.339,36.017,6.533,54.468,6.533s36.711-2.194,54.468-6.533v16.747c0,23.752,19.002,43.597,42.357,44.237 c0.413,0.012,0.825,0.017,1.235,0.017c11.416,0,22.159-4.355,30.367-12.341c8.506-8.276,13.189-19.368,13.189-31.233V435.26 c0-6.069,0.919-12.012,2.694-17.68c6.035,16.48,21.538,28.544,39.663,29.041c11.89,0.332,23.099-4.051,31.602-12.324 c8.506-8.276,13.189-19.368,13.189-31.233v-98.042c0-6.017-4.878-10.894-10.894-10.894s-10.894,4.877-10.894,10.894v98.042 c0,5.933-2.342,11.479-6.596,15.617c-4.25,4.136-9.858,6.314-15.811,6.161c-11.672-0.32-21.168-10.395-21.168-22.458v-18.047v-57.53 c0-6.017-4.878-10.894-10.894-10.894s-10.894,4.877-10.894,10.894v53.12c-13.892,15.127-21.787,35.05-21.787,55.332v33.164 c0,5.933-2.342,11.479-6.596,15.617c-4.251,4.136-9.84,6.316-15.811,6.161c-11.672-0.32-21.168-10.395-21.168-22.458v-31.089 c0-3.469-1.651-6.729-4.448-8.781c-2.794-2.052-6.401-2.651-9.711-1.611c-20.026,6.291-40.918,9.481-62.094,9.481 s-42.069-3.19-62.097-9.481c-3.313-1.039-6.916-0.44-9.711,1.611c-2.796,2.052-4.448,5.313-4.448,8.781v31.769 c0,5.933-2.342,11.479-6.596,15.617c-4.25,4.136-9.864,6.316-15.811,6.161c-11.672-0.32-21.168-10.395-21.168-22.458v-32.485 c0-20.293-7.902-40.224-21.787-55.335v-53.117c0-6.017-4.878-10.894-10.894-10.894s-10.894,4.877-10.894,10.894v57.528v18.727 c0,5.933-2.342,11.479-6.596,15.617c-4.251,4.136-9.846,6.314-15.811,6.161c-11.672-0.32-21.168-10.395-21.168-22.458V230.631 c0-55.751,21.961-108.378,61.84-148.184c39.199-39.125,90.731-60.66,145.15-60.66c0.122,0,0.247,0,0.37,0 c113.918,0.204,206.598,93.053,206.598,206.978v10.894c0,6.017,4.878,10.894,10.894,10.894s10.894-4.877,10.894-10.894v-10.894 C484.765,167.733,461.018,110.333,417.898,67.14z"></path> <path d="M223.319,217.871c0-30.034-24.434-54.468-54.468-54.468s-54.468,24.434-54.468,54.468s24.434,54.468,54.468,54.468 S223.319,247.905,223.319,217.871z M168.851,250.552c-18.02,0-32.681-14.661-32.681-32.681s14.661-32.681,32.681-32.681 s32.681,14.661,32.681,32.681S186.871,250.552,168.851,250.552z"></path> <path d="M397.616,217.871c0-30.034-24.434-54.468-54.468-54.468c-30.034,0-54.468,24.434-54.468,54.468s24.434,54.468,54.468,54.468 C373.182,272.339,397.616,247.905,397.616,217.871z M310.467,217.871c0-18.02,14.661-32.681,32.681-32.681 s32.681,14.661,32.681,32.681s-14.661,32.681-32.681,32.681S310.467,235.892,310.467,217.871z"></path> <path d="M236.119,337.701h39.762c19.071,0,34.587-15.516,34.587-34.587v-6.264c0-13.516-10.996-24.511-24.511-24.511h-59.915 c-13.515,0-24.511,10.995-24.511,24.511v6.264C201.532,322.185,217.047,337.701,236.119,337.701z M223.319,296.85 c0-1.501,1.221-2.723,2.723-2.723h59.915c1.502,0,2.723,1.222,2.723,2.723v6.264c0,7.058-5.742,12.8-12.8,12.8h-39.762 c-7.058,0-12.8-5.742-12.8-12.8V296.85z"></path> </g></svg>
