<svg width="78" height="78" viewBox="0 0 78 78" fill="none" xmlns="http://www.w3.org/2000/svg">
<rect width="78" height="78" rx="39" fill="#F3EDD9"/>
<path d="M49.7122 23.3599C50.2235 22.8489 50.8303 22.4436 51.4981 22.1671C52.166 21.8906 52.8818 21.7484 53.6046 21.7485C54.3274 21.7487 55.0431 21.8912 55.7109 22.1679C56.3786 22.4446 56.9853 22.8502 57.4963 23.3614C58.0073 23.8726 58.4127 24.4794 58.6891 25.1473C58.9656 25.8151 59.1079 26.5309 59.1077 27.2537C59.1076 27.9765 58.9651 28.6922 58.6884 29.36C58.4116 30.0277 58.0061 30.6344 57.4949 31.1454L49.9049 38.7354C49.0562 39.5842 48.0085 40.2069 46.8574 40.5467L42.6426 41.7887C42.1475 41.9343 41.6223 41.944 41.1221 41.8167C40.622 41.6894 40.1653 41.4298 39.8 41.0651C39.4348 40.7005 39.1745 40.2442 39.0463 39.7443C38.9182 39.2443 38.927 38.7191 39.0719 38.2237L40.3081 34.0061C40.6483 32.8513 41.2731 31.8004 42.1251 30.9499L49.7122 23.3599ZM55.4622 25.3954C55.2182 25.1513 54.9285 24.9576 54.6095 24.8254C54.2906 24.6932 53.9488 24.6252 53.6036 24.6252C53.2583 24.6252 52.9165 24.6932 52.5976 24.8254C52.2787 24.9576 51.9889 25.1513 51.7449 25.3954L44.1549 32.9826C43.6448 33.4934 43.2711 34.1241 43.0681 34.8168L41.8319 39.0316L46.0409 37.7896C46.7309 37.5854 47.3634 37.2117 47.8694 36.7028L55.4594 29.1128C55.7036 28.8688 55.8973 28.579 56.0294 28.2601C56.1616 27.9412 56.2296 27.5994 56.2296 27.2541C56.2296 26.9089 56.1616 26.5671 56.0294 26.2482C55.8973 25.9292 55.7064 25.6395 55.4622 25.3954ZM44.382 24.6249H26.0625C24.1563 24.6249 22.3281 25.3822 20.9802 26.7301C19.6323 28.078 18.875 29.9062 18.875 31.8124V46.1875C18.875 48.0937 19.6323 49.9219 20.9802 51.2698C22.3281 52.6177 24.1563 53.375 26.0625 53.375H51.9375C53.8437 53.375 55.6719 52.6177 57.0198 51.2698C58.3677 49.9219 59.125 48.0937 59.125 46.1875V33.5806L56.25 36.4556V46.1875C56.25 47.3312 55.7957 48.4281 54.9869 49.2368C54.1781 50.0456 53.0812 50.5 51.9375 50.5H26.0625C24.9188 50.5 23.8219 50.0456 23.0131 49.2368C22.2044 48.4281 21.75 47.3312 21.75 46.1875V36.9069C23.3456 35.6046 25.1713 34.4229 26.7784 33.8278C27.6696 33.4943 28.3798 33.3879 28.8915 33.4483C29.3429 33.5029 29.6534 33.6783 29.8977 34.0463C30.26 34.5897 30.26 35.0238 30.0271 35.5902C29.7454 36.2802 29.1646 37.0191 28.3798 37.9764L28.282 38.1001C27.5834 38.9482 26.7352 39.9832 26.2235 41.0987C25.6456 42.3522 25.4329 43.83 26.2149 45.3939C27.4224 47.8147 30.1479 48.0735 32.2955 47.6595C34.6641 47.169 36.844 46.0142 38.5802 44.3302C38.7139 44.1965 38.8199 44.0379 38.8923 43.8633C38.9646 43.6886 39.0018 43.5015 39.0018 43.3124C39.0018 43.1234 38.9646 42.9363 38.8923 42.7616C38.8199 42.587 38.7139 42.4284 38.5802 42.2947C38.4466 42.161 38.2879 42.055 38.1133 41.9827C37.9387 41.9104 37.7515 41.8731 37.5625 41.8731C37.3735 41.8731 37.1863 41.9104 37.0117 41.9827C36.8371 42.055 36.6784 42.161 36.5448 42.2947C35.3142 43.5281 33.4398 44.5084 31.7493 44.8362C29.9668 45.1812 29.0927 44.7212 28.788 44.1059C28.489 43.5137 28.5206 42.9789 28.834 42.3004C29.1848 41.5357 29.8173 40.7623 30.605 39.7992L30.6338 39.7647C31.3468 38.8964 32.2179 37.8298 32.6894 36.6798C33.2184 35.3861 33.2673 33.9198 32.2898 32.4536C31.9513 31.934 31.5004 31.4971 30.9704 31.1752C30.4405 30.8532 29.845 30.6544 29.2279 30.5934C28.0865 30.4583 26.8876 30.7199 25.7779 31.1311C24.4295 31.6313 23.0409 32.4191 21.75 33.3103V31.8124C21.75 31.2461 21.8615 30.6853 22.0783 30.1621C22.295 29.6389 22.6126 29.1635 23.0131 28.7631C23.4136 28.3626 23.889 28.0449 24.4122 27.8282C24.9354 27.6115 25.4962 27.4999 26.0625 27.4999H41.507L44.382 24.6249Z" fill="#EDC84B"/>
</svg>
