<svg width="" height="" viewBox="0 0 40 40" fill="none" xmlns="http://www.w3.org/2000/svg">
<rect x="0.25" y="0.5" width="39" height="39" rx="19.5" fill="#F3EDD9"/>
<path d="M25.1061 12.18C25.3617 11.9245 25.6652 11.7218 25.9991 11.5836C26.333 11.4453 26.6909 11.3742 27.0523 11.3743C27.4137 11.3743 27.7716 11.4456 28.1054 11.584C28.4393 11.7223 28.7426 11.9251 28.9982 12.1807C29.2537 12.4363 29.4563 12.7397 29.5946 13.0736C29.7328 13.4076 29.8039 13.7654 29.8039 14.1269C29.8038 14.4883 29.7325 14.8461 29.5942 15.18C29.4558 15.5139 29.253 15.8172 28.9974 16.0727L25.2024 19.8677C24.7781 20.2921 24.2543 20.6034 23.6787 20.7733L21.5713 21.3944C21.3237 21.4672 21.0611 21.472 20.8111 21.4083C20.561 21.3447 20.3326 21.2149 20.15 21.0326C19.9674 20.8502 19.8372 20.6221 19.7732 20.3721C19.7091 20.1221 19.7135 19.8595 19.7859 19.6118L20.4041 17.503C20.5741 16.9256 20.8865 16.4002 21.3126 15.975L25.1061 12.18ZM27.9811 13.1977C27.8591 13.0756 27.7142 12.9788 27.5548 12.9127C27.3953 12.8466 27.2244 12.8126 27.0518 12.8126C26.8792 12.8126 26.7083 12.8466 26.5488 12.9127C26.3893 12.9788 26.2445 13.0756 26.1224 13.1977L22.3274 16.9913C22.0724 17.2467 21.8856 17.562 21.7841 17.9084L21.1659 20.0158L23.2704 19.3948C23.6154 19.2927 23.9317 19.1058 24.1847 18.8514L27.9797 15.0564C28.1018 14.9344 28.1986 14.7895 28.2647 14.6301C28.3308 14.4706 28.3648 14.2997 28.3648 14.1271C28.3648 13.9545 28.3308 13.7835 28.2647 13.6241C28.1986 13.4646 28.1032 13.3197 27.9811 13.1977ZM22.441 12.8125H13.2812C12.3281 12.8125 11.414 13.1911 10.7401 13.8651C10.0661 14.539 9.6875 15.4531 9.6875 16.4062V23.5937C9.6875 24.5468 10.0661 25.4609 10.7401 26.1349C11.414 26.8088 12.3281 27.1875 13.2812 27.1875H26.2188C27.1719 27.1875 28.086 26.8088 28.7599 26.1349C29.4339 25.4609 29.8125 24.5468 29.8125 23.5937V17.2903L28.375 18.7278V23.5937C28.375 24.1656 28.1478 24.714 27.7435 25.1184C27.3391 25.5228 26.7906 25.75 26.2188 25.75H13.2812C12.7094 25.75 12.1609 25.5228 11.7566 25.1184C11.3522 24.714 11.125 24.1656 11.125 23.5937V18.9535C11.9228 18.3023 12.8356 17.7115 13.6392 17.4139C14.0848 17.2472 14.4399 17.194 14.6958 17.2242C14.9214 17.2515 15.0767 17.3392 15.1989 17.5232C15.38 17.7948 15.38 18.0119 15.2636 18.2951C15.1227 18.6401 14.8323 19.0095 14.4399 19.4882L14.391 19.55C14.0417 19.9741 13.6176 20.4916 13.3617 21.0493C13.0728 21.6761 12.9664 22.415 13.3574 23.197C13.9612 24.4073 15.3239 24.5367 16.3978 24.3297C17.582 24.0845 18.672 23.5071 19.5401 22.6651C19.607 22.5983 19.66 22.5189 19.6961 22.4316C19.7323 22.3443 19.7509 22.2507 19.7509 22.1562C19.7509 22.0617 19.7323 21.9681 19.6961 21.8808C19.66 21.7935 19.607 21.7142 19.5401 21.6473C19.4733 21.5805 19.394 21.5275 19.3067 21.4913C19.2193 21.4552 19.1258 21.4366 19.0312 21.4366C18.9367 21.4366 18.8432 21.4552 18.7558 21.4913C18.6685 21.5275 18.5892 21.5805 18.5224 21.6473C17.9071 22.264 16.9699 22.7542 16.1246 22.9181C15.2334 23.0906 14.7964 22.8606 14.644 22.553C14.4945 22.2568 14.5103 21.9895 14.667 21.6502C14.8424 21.2678 15.1586 20.8812 15.5525 20.3996L15.5669 20.3823C15.9234 19.9482 16.3589 19.4149 16.5947 18.8399C16.8592 18.193 16.8836 17.4599 16.3949 16.7268C16.2256 16.467 16.0002 16.2486 15.7352 16.0876C15.4702 15.9266 15.1725 15.8272 14.8639 15.7967C14.2932 15.7292 13.6938 15.86 13.1389 16.0655C12.4648 16.3157 11.7704 16.7095 11.125 17.1552V16.4062C11.125 16.1231 11.1808 15.8427 11.2891 15.5811C11.3975 15.3195 11.5563 15.0818 11.7566 14.8815C11.9568 14.6813 12.1945 14.5225 12.4561 14.4141C12.7177 14.3057 12.9981 14.25 13.2812 14.25H21.0035L22.441 12.8125Z" fill="#EDC84B"/>
</svg>
