<svg width="545" height="306" viewBox="0 0 545 306" fill="none" xmlns="http://www.w3.org/2000/svg">
    <path d="M-3.34607 190.698C3.98887 186.848 6.81341 177.78 2.96272 170.445C-0.887974 163.11 -9.95572 160.285 -17.2907 164.136L-3.34607 190.698ZM27.2074 235.733L25.3122 220.853L27.2074 235.733ZM471.692 115.212L466.281 101.222L466.281 101.222L471.692 115.212ZM460.514 38.1106C452.345 39.4869 446.839 47.225 448.215 55.3942C449.591 63.5633 457.329 69.07 465.498 67.6937L460.514 38.1106ZM172.634 156.579C180.509 154.007 184.808 145.538 182.236 137.663C179.663 129.789 171.194 125.49 163.32 128.062L172.634 156.579ZM196.153 279.616C203.986 276.918 208.149 268.382 205.451 260.549C202.754 252.716 194.217 248.553 186.384 251.251L196.153 279.616ZM56.571 231.705L58.7523 246.545L56.571 231.705ZM41.9771 165.288L26.9895 165.899C27.1555 169.973 28.9729 173.804 32.0232 176.509C35.0735 179.215 39.0939 180.563 43.1587 180.241L41.9771 165.288ZM89.8957 285.3L88.6733 270.35C83.0271 270.811 78.1227 274.415 75.9944 279.665C73.8662 284.915 74.8774 290.916 78.6084 295.179L89.8957 285.3ZM429.666 78.3582C426.548 70.6833 417.798 66.9893 410.123 70.1076C402.448 73.2259 398.754 81.9756 401.873 89.6506L429.666 78.3582ZM295.009 -12.1728C302.828 -9.43631 311.385 -13.5567 314.122 -21.3759C316.858 -29.1952 312.738 -37.7523 304.919 -40.4888L295.009 -12.1728ZM415.01 157.224C415.01 256.318 334.804 336.612 235.911 336.612V366.612C351.414 366.612 445.01 272.845 445.01 157.224H415.01ZM56.8131 157.224C56.8131 58.1295 137.019 -22.1642 235.911 -22.1642V-52.1642C120.408 -52.1642 26.8131 41.6032 26.8131 157.224H56.8131ZM-17.2907 164.136C-44.1828 178.254 -62.0395 190.739 -70.8657 202.383C-75.4073 208.374 -79.1999 216.328 -77.6551 225.337C-76.0733 234.563 -69.6978 240.378 -64.0086 243.734C-53.2896 250.056 -37.3135 252.36 -22.1272 253.049C-6.13264 253.774 12.002 252.791 29.1026 250.613L25.3122 220.853C9.5603 222.859 -6.81981 223.712 -20.7683 223.08C-35.5251 222.411 -44.9204 220.163 -48.7674 217.894C-50.3613 216.954 -48.5674 217.464 -48.0866 220.267C-47.6429 222.855 -49.056 223.273 -46.9583 220.505C-42.5059 214.632 -30.0447 204.714 -3.34607 190.698L-17.2907 164.136ZM477.103 129.202C501.074 119.931 518.488 109.974 529.454 99.6277C540.046 89.6345 548.021 75.5354 541.954 60.5995C536.532 47.2524 522.523 40.8332 509.834 38.031C496.177 35.0149 479.172 34.9673 460.514 38.1106L465.498 67.6937C481.455 65.0054 494.426 65.3511 503.365 67.3252C513.272 69.5132 514.481 72.6811 514.16 71.8897C513.193 69.5097 516.15 70.9351 508.867 77.8071C501.958 84.3256 488.64 92.5745 466.281 101.222L477.103 129.202ZM29.1026 250.613C39.1043 249.339 48.988 247.981 58.7523 246.545L54.3897 216.864C44.8132 218.272 35.1202 219.604 25.3122 220.853L29.1026 250.613ZM56.9646 164.677C56.864 162.206 56.8131 159.721 56.8131 157.224H26.8131C26.8131 160.129 26.8723 163.021 26.9895 165.899L56.9646 164.677ZM43.1587 180.241C94.1209 176.214 134.741 168.957 172.634 156.579L163.32 128.062C128.3 139.501 90.1469 146.435 40.7955 150.335L43.1587 180.241ZM235.911 336.612C182.208 336.612 134.035 312.955 101.183 275.421L78.6084 295.179C116.909 338.939 173.19 366.612 235.911 366.612V336.612ZM91.1182 300.25C133.829 296.758 171.59 288.075 196.153 279.616L186.384 251.251C164.344 258.841 129.058 267.048 88.6733 270.35L91.1182 300.25ZM58.7523 246.545C217.602 223.197 344.848 179.439 433.672 145.869L423.066 117.806C335.142 151.036 210.183 193.966 54.3897 216.864L58.7523 246.545ZM413.495 133.775C414.494 141.443 415.01 149.269 415.01 157.224H445.01C445.01 147.97 444.409 138.85 443.244 129.9L413.495 133.775ZM433.672 145.869C448.204 140.377 462.683 134.779 477.103 129.202L466.281 101.222C451.849 106.804 437.473 112.361 423.066 117.806L433.672 145.869ZM401.873 89.6506C407.528 103.569 411.488 118.361 413.495 133.775L443.244 129.9C440.9 111.906 436.275 94.6235 429.666 78.3582L401.873 89.6506ZM235.911 -22.1642C256.645 -22.1642 276.526 -18.6413 295.009 -12.1728L304.919 -40.4888C283.295 -48.0566 260.066 -52.1642 235.911 -52.1642V-22.1642Z" fill="#7894F8"/>
    <path d="M308.104 24.6866C343.448 11.963 352.284 -6.41552 361.119 -46C369.955 -6.41552 378.791 11.963 414.134 24.6866C378.791 34.5827 367.01 52.9612 361.119 95.3731C355.229 52.9612 343.448 37.4102 308.104 24.6866Z" stroke="#7894F8" stroke-width="25" stroke-linejoin="round"/>
</svg>
