<svg width="287" height="175" viewBox="0 0 287 175" fill="none" xmlns="http://www.w3.org/2000/svg">
    <path fill-rule="evenodd" clip-rule="evenodd" d="M133.076 107.764C192.305 118.362 242.034 117.37 244.149 105.55C246.264 93.7289 199.964 75.5553 140.735 64.9577C81.5063 54.3602 31.7771 55.3517 29.6621 67.1724C27.5471 78.993 73.8471 97.1666 133.076 107.764ZM134.053 102.303C178.192 110.201 215.25 109.467 216.825 100.664C218.4 91.8618 183.895 78.3236 139.757 70.4261C95.6177 62.5285 58.5593 63.2622 56.9843 72.0648C55.4093 80.8674 89.9141 94.4056 134.053 102.303Z" fill="#C16ED6"/>
    <ellipse cx="136.885" cy="86.2653" rx="71.4862" ry="64.8296" transform="rotate(10.1443 136.885 86.2653)" fill="url(#paint0_linear_1219_1605)"/>
    <mask id="mask0_1219_1605" style="mask-type:alpha" maskUnits="userSpaceOnUse" x="5" y="63" width="270" height="81">
        <rect x="11.4" y="63.9185" width="267.394" height="32.8459" transform="rotate(10.1443 11.4 63.9185)" fill="#D9D9D9"/>
    </mask>
    <g mask="url(#mask0_1219_1605)">
        <path fill-rule="evenodd" clip-rule="evenodd" d="M133.028 107.772C192.257 118.37 241.986 117.378 244.101 105.558C246.216 93.737 199.916 75.5635 140.687 64.9659C81.4584 54.3684 31.7292 55.3599 29.6142 67.1805C27.4992 79.0012 73.7992 97.1747 133.028 107.772ZM134.004 102.311C178.143 110.208 215.201 109.475 216.776 100.672C218.351 91.8695 183.847 78.3313 139.708 70.4338C95.5689 62.5362 58.5106 63.2699 56.9355 72.0725C55.3605 80.8751 89.8653 94.4133 134.004 102.311Z" fill="#C16ED6"/>
    </g>
    <defs>
        <linearGradient id="paint0_linear_1219_1605" x1="84.0321" y1="21.4357" x2="189.738" y2="151.095" gradientUnits="userSpaceOnUse">
            <stop stop-color="#482C95"/>
            <stop offset="1" stop-color="#ADBFFF"/>
        </linearGradient>
    </defs>
</svg>
